<svg width="39" height="39" viewBox="0 0 39 39" fill="none" xmlns="http://www.w3.org/2000/svg">
<path d="M2.16667 6.5V4.33333H4.33333V2.16667H6.5V0H28.1667V2.16667H30.3333V4.33333H32.5V6.5H34.6667V4.33333V2.16667H39V15.1667H26V10.8333H30.3333V8.66667H28.1667V6.5H26V4.33333H10.8333V6.5H8.66667V8.66667H6.5V10.8333H4.33333V28.1667H6.5V30.3333H8.66667V32.5H10.8333V34.6667H26V32.5H28.1667V30.3333H30.3333V28.1667H32.5V26H36.8333V32.5H34.6667V34.6667H32.5V36.8333H30.3333V39H6.5V36.8333H4.33333V34.6667H2.16667V32.5H0V6.5H2.16667Z" fill="black"/>
</svg>
